<?xml version="1.0" standalone="no"?>
<!DOCTYPE svg PUBLIC "-//W3C//DTD SVG 20010904//EN"
 "http://www.w3.org/TR/2001/REC-SVG-20010904/DTD/svg10.dtd">
<svg version="1.0" xmlns="http://www.w3.org/2000/svg"
 width="1000.000000pt" height="1000.000000pt" viewBox="0 0 1000.000000 1000.000000"
 preserveAspectRatio="xMidYMid meet">

<g transform="translate(0.000000,1000.000000) scale(0.100000,-0.100000)"
fill="#000000" stroke="none">
<path d="M2155 5746 c-5 -2 -36 -12 -68 -21 -33 -10 -79 -29 -104 -44 -24 -14
-54 -31 -65 -37 -32 -18 -98 -86 -114 -117 -11 -21 -12 -32 -4 -42 6 -7 10
-17 9 -21 -1 -5 10 -35 24 -66 25 -54 41 -70 49 -50 2 5 15 12 31 16 20 5 27
3 27 -9 0 -8 7 -15 16 -15 8 0 20 -13 25 -29 l10 -29 42 45 c22 24 54 53 69
65 31 22 133 49 186 50 22 0 38 8 52 25 11 14 61 68 110 120 50 52 90 98 90
103 0 5 -26 19 -57 31 -48 19 -81 23 -188 26 -71 1 -134 1 -140 -1z"/>
<path d="M3490 5195 l0 -385 60 0 60 0 0 385 0 385 -60 0 -60 0 0 -385z"/>
<path d="M2955 5525 c-171 -44 -275 -181 -275 -361 0 -120 70 -253 162 -306
117 -68 235 -84 354 -47 73 23 154 71 154 93 0 7 -18 27 -40 44 l-39 32 -48
-30 c-85 -54 -149 -62 -240 -30 -113 40 -192 156 -179 265 10 93 70 181 147
217 86 41 204 31 280 -24 l41 -29 34 26 c49 38 53 54 18 82 -93 75 -237 102
-369 68z"/>
<path d="M1767 5473 c-4 -3 -7 -11 -7 -17 0 -6 5 -5 12 2 6 6 9 14 7 17 -3 3
-9 2 -12 -2z"/>
<path d="M3984 5370 c-211 -43 -293 -310 -149 -481 40 -46 123 -86 200 -95 64
-8 174 23 220 61 l29 24 -29 31 c-34 35 -43 36 -92 10 -45 -24 -125 -26 -174
-6 -53 22 -119 102 -104 126 4 6 93 10 226 10 189 0 220 2 226 15 9 24 -16
136 -39 173 -62 101 -193 156 -314 132z m188 -149 c21 -22 38 -49 38 -60 0
-19 -8 -20 -142 -23 -79 -2 -151 -1 -160 1 -24 5 -23 24 5 66 31 48 77 66 157
61 60 -4 67 -7 102 -45z"/>
<path d="M4395 5361 c-6 -11 36 -117 145 -364 l82 -185 36 -4 c19 -2 51 -2 70
1 34 6 35 8 121 201 49 107 100 221 114 252 15 32 29 69 33 83 6 25 5 25 -50
25 l-57 0 -43 -92 c-23 -51 -58 -127 -76 -168 -39 -87 -68 -132 -82 -128 -5 2
-45 84 -88 182 -44 98 -85 185 -91 192 -13 16 -105 19 -114 5z"/>
<path d="M5225 5349 c-59 -31 -114 -87 -141 -144 -19 -39 -24 -66 -23 -125 1
-141 68 -228 210 -271 87 -26 147 -21 236 22 72 34 79 53 32 88 -31 23 -35 23
-104 -3 -57 -21 -102 -19 -160 8 -52 24 -79 54 -91 100 l-6 26 223 2 224 3 -3
54 c-7 109 -56 190 -142 235 -67 35 -194 37 -255 5z m241 -120 c18 -19 36 -46
39 -61 l7 -27 -144 -3 c-159 -3 -178 -2 -178 18 0 23 39 80 62 92 42 20 53 22
117 18 57 -3 67 -8 97 -37z"/>
<path d="M7315 5340 c-3 -5 -2 -10 4 -10 5 0 13 5 16 10 3 6 2 10 -4 10 -5 0
-13 -4 -16 -10z"/>
<path d="M1920 5310 c0 -5 5 -10 10 -10 6 0 10 5 10 10 0 6 -4 10 -10 10 -5 0
-10 -4 -10 -10z"/>
<path d="M1945 5270 c3 -5 8 -10 11 -10 2 0 4 5 4 10 0 6 -5 10 -11 10 -5 0
-7 -4 -4 -10z"/>
<path d="M2277 4818 c-24 -27 -27 -36 -18 -55 6 -13 18 -23 27 -23 11 0 14 -5
10 -17 -11 -26 15 -103 35 -103 8 0 21 -11 27 -25 9 -20 8 -26 -6 -34 -14 -9
-11 -10 16 -11 17 0 32 4 32 10 0 5 7 7 16 3 18 -7 154 46 154 60 0 10 -33 51
-90 112 -64 68 -99 95 -125 95 -14 0 -25 5 -25 10 0 19 -25 9 -53 -22z m48
-36 c-3 -8 0 -19 7 -24 7 -4 -2 -5 -22 -2 -45 9 -45 9 -23 31 20 22 47 18 38
-5z m59 2 c3 -8 10 -13 16 -9 5 3 20 -3 32 -14 17 -17 19 -21 6 -21 -9 0 -18
6 -21 13 -3 9 -7 9 -19 0 -12 -10 -19 -8 -36 12 -27 31 -27 35 -3 35 10 0 22
-7 25 -16z m76 -193 c0 -6 -4 -13 -10 -16 -5 -3 -10 1 -10 9 0 9 5 16 10 16 6
0 10 -4 10 -9z"/>
<path d="M2220 4752 c0 -4 10 -13 23 -21 22 -14 22 -14 3 8 -20 22 -26 25 -26
13z"/>
</g>
</svg>
