<?xml version="1.0" standalone="no"?>
<!DOCTYPE svg PUBLIC "-//W3C//DTD SVG 20010904//EN"
 "http://www.w3.org/TR/2001/REC-SVG-20010904/DTD/svg10.dtd">
<svg version="1.0" xmlns="http://www.w3.org/2000/svg"
 width="2000.000000pt" height="2000.000000pt" viewBox="0 0 2000.000000 2000.000000"
 preserveAspectRatio="xMidYMid meet">

<g transform="translate(0.000000,2000.000000) scale(0.100000,-0.100000)"
fill="#000000" stroke="none">
<path d="M4344 11500 c-57 -11 -271 -76 -294 -90 -8 -5 -46 -25 -85 -43 -38
-19 -81 -46 -94 -61 -14 -14 -30 -26 -38 -26 -33 0 -203 -156 -203 -187 0 -5
-12 -26 -27 -48 -28 -41 -39 -70 -22 -59 5 3 9 -1 9 -9 0 -8 7 -18 15 -21 13
-4 14 -10 5 -26 -9 -16 -7 -24 5 -37 9 -8 24 -33 33 -54 9 -22 20 -39 24 -39
5 0 8 -13 8 -29 0 -17 5 -33 11 -37 6 -3 9 -15 6 -25 -3 -10 -2 -18 2 -17 3 1
15 -3 25 -7 14 -6 24 -3 35 11 9 10 27 21 41 22 14 2 29 8 35 13 19 19 43 9
50 -21 4 -16 13 -30 20 -30 8 0 25 -5 38 -11 18 -8 23 -17 19 -35 -2 -13 1
-30 7 -38 6 -7 9 -21 5 -30 -5 -12 -2 -15 10 -10 10 4 20 20 23 36 3 18 15 33
28 38 12 4 44 35 72 67 28 32 64 65 80 73 15 8 37 22 48 31 25 20 79 39 114
39 14 0 39 7 55 15 15 8 34 15 42 15 8 0 11 6 7 16 -5 13 -2 15 13 7 16 -7 74
-9 164 -4 8 1 32 22 53 49 47 58 244 270 310 333 26 25 47 49 47 54 0 5 9 19
21 31 37 39 9 57 -173 111 -119 35 -128 36 -308 39 -102 1 -208 -1 -236 -6z
m-564 -310 c0 -5 -5 -10 -11 -10 -5 0 -7 5 -4 10 3 6 8 10 11 10 2 0 4 -4 4
-10z"/>
<path d="M6983 11148 c-13 -21 -16 -1494 -3 -1518 10 -19 19 -20 128 -18 l117
3 3 730 c2 402 0 749 -3 773 l-6 42 -114 0 c-80 0 -116 -4 -122 -12z"/>
<path d="M6020 11073 c-36 -8 -91 -19 -123 -24 -59 -11 -230 -89 -244 -112 -5
-7 -21 -21 -36 -30 -35 -22 -117 -105 -117 -117 0 -5 -13 -24 -29 -42 -17 -21
-43 -77 -67 -148 -38 -112 -39 -118 -39 -260 0 -143 1 -147 40 -263 29 -85 50
-131 77 -164 21 -25 38 -52 38 -59 0 -8 13 -22 30 -32 16 -10 39 -31 51 -46
12 -15 31 -32 43 -37 24 -10 49 -25 92 -56 17 -12 53 -27 80 -34 27 -7 61 -18
76 -26 47 -23 166 -43 260 -43 93 0 152 12 300 60 117 38 248 131 248 176 0
19 -139 134 -162 134 -11 0 -41 -15 -67 -33 -172 -123 -361 -149 -527 -71 -28
13 -55 24 -59 24 -12 0 -118 82 -135 105 -8 11 -25 31 -39 45 -34 34 -97 184
-105 250 -8 71 12 194 41 260 36 78 58 116 85 143 15 16 28 32 28 37 0 4 35
30 78 58 130 85 294 107 470 63 66 -17 105 -33 132 -55 80 -63 98 -76 107 -76
4 0 44 34 88 75 l80 75 -55 51 c-92 84 -194 133 -343 163 -142 29 -200 31
-297 9z"/>
<path d="M12288 11033 c7 -3 16 -2 19 1 4 3 -2 6 -13 5 -11 0 -14 -3 -6 -6z"/>
<path d="M12496 10962 c-3 -6 -1 -14 5 -17 15 -10 25 3 12 16 -7 7 -13 7 -17
1z"/>
<path d="M3533 10948 c-4 -7 -8 -19 -9 -27 -2 -7 -13 -24 -25 -37 -27 -29 -19
-42 13 -20 12 9 18 16 13 16 -5 0 -1 6 8 13 9 6 18 24 21 40 5 28 -7 36 -21
15z"/>
<path d="M12610 10831 c0 -6 5 -13 10 -16 6 -3 10 1 10 9 0 9 -4 16 -10 16 -5
0 -10 -4 -10 -9z"/>
<path d="M11772 10744 c4 -21 22 -23 26 -1 2 10 -3 17 -13 17 -10 0 -15 -6
-13 -16z"/>
<path d="M7952 10739 c-29 -5 -70 -20 -92 -34 -22 -14 -58 -32 -80 -41 -83
-33 -206 -200 -236 -320 -20 -80 -22 -251 -5 -324 14 -57 96 -220 111 -220 4
0 18 -16 30 -34 11 -19 31 -38 43 -42 12 -3 33 -16 47 -29 28 -26 82 -55 102
-55 7 0 26 -7 42 -15 45 -24 162 -38 261 -32 68 4 113 13 185 39 99 35 200
100 200 129 0 17 -112 129 -129 129 -6 0 -48 -19 -92 -42 -77 -41 -86 -43
-180 -46 -81 -3 -108 0 -156 18 -135 50 -242 168 -231 256 l3 27 432 -2 c422
-2 432 -2 452 18 24 24 22 70 -10 216 -34 158 -128 274 -285 353 -44 22 -107
45 -139 51 -68 13 -196 13 -273 0z m283 -219 c81 -28 149 -95 172 -168 27 -84
33 -82 -311 -82 -160 0 -297 4 -305 9 -37 23 38 167 110 212 99 61 215 71 334
29z"/>
<path d="M10575 10743 c-43 -6 -116 -34 -144 -55 -13 -10 -30 -18 -37 -18 -8
0 -51 -35 -95 -77 -68 -65 -88 -92 -127 -173 l-47 -95 0 -160 0 -160 39 -85
c40 -87 108 -174 155 -199 14 -8 38 -24 52 -36 14 -12 53 -30 85 -40 33 -10
64 -21 69 -25 26 -20 142 -33 243 -27 89 5 122 12 192 40 97 38 190 100 190
126 0 16 -119 131 -135 131 -3 0 -34 -14 -68 -31 -78 -39 -153 -59 -221 -59
-61 0 -172 31 -207 58 -13 10 -32 21 -41 25 -9 3 -36 32 -59 63 -32 44 -43 69
-47 106 l-5 48 426 0 c234 0 432 3 441 6 41 16 1 282 -55 369 -10 17 -27 43
-36 59 -52 86 -211 187 -324 206 -62 10 -183 11 -244 3z m257 -223 c78 -24
153 -95 173 -164 27 -90 40 -86 -309 -86 -365 0 -350 -5 -292 106 43 84 95
132 159 146 23 5 60 13 82 18 49 10 111 4 187 -20z"/>
<path d="M8798 10734 c-10 -3 -18 -9 -18 -13 0 -21 34 -120 51 -148 11 -17 31
-64 44 -104 14 -40 32 -83 40 -95 8 -13 22 -45 31 -71 9 -26 29 -71 44 -99 16
-28 34 -71 40 -95 7 -24 18 -51 26 -59 7 -9 25 -47 39 -85 15 -39 37 -88 49
-110 13 -22 31 -62 40 -90 9 -27 29 -72 44 -100 l27 -50 116 -3 c112 -3 118
-2 147 23 16 14 33 37 37 52 3 14 27 72 51 127 25 56 60 135 79 176 18 41 56
125 83 185 28 61 68 153 91 205 23 52 54 120 70 150 41 79 84 190 76 198 -4 4
-43 6 -88 5 -45 -1 -96 -2 -113 -2 -27 -1 -34 -7 -51 -43 -11 -24 -38 -81 -61
-128 -22 -47 -48 -106 -58 -132 -9 -26 -23 -53 -30 -59 -7 -6 -23 -41 -35 -77
-12 -37 -35 -88 -51 -113 -15 -25 -28 -53 -28 -60 0 -18 -77 -151 -93 -161
-21 -13 -45 11 -62 64 -9 29 -25 67 -35 83 -10 17 -28 55 -39 85 -12 30 -32
78 -46 105 -13 28 -44 97 -70 155 -75 171 -119 261 -133 272 -13 11 -185 21
-214 12z"/>
<path d="M13400 10710 c-18 -12 -2 -12 25 0 13 6 15 9 5 9 -8 0 -22 -4 -30 -9z"/>
<path d="M14634 10679 c-19 -21 -19 -21 6 -18 14 2 26 12 28 22 5 23 -11 22
-34 -4z"/>
<path d="M3851 10640 c-17 -10 -7 -40 14 -40 8 0 15 9 15 19 0 24 -12 32 -29
21z"/>
<path d="M13250 10635 c-11 -13 -10 -14 4 -9 9 3 16 10 16 15 0 13 -6 11 -20
-6z"/>
<path d="M13190 10589 l-35 -30 38 26 c33 24 43 35 34 35 -1 0 -18 -14 -37
-31z"/>
<path d="M3890 10540 c0 -13 7 -20 20 -20 18 0 19 3 10 20 -6 11 -15 20 -20
20 -6 0 -10 -9 -10 -20z"/>
<path d="M3937 10507 c-3 -7 -2 -19 3 -26 5 -9 9 -8 14 5 4 9 3 21 -2 26 -6 6
-12 4 -15 -5z"/>
<path d="M15090 10145 c0 -8 5 -15 10 -15 6 0 10 7 10 15 0 8 -4 15 -10 15 -5
0 -10 -7 -10 -15z"/>
<path d="M14650 9780 c0 -5 5 -10 10 -10 6 0 10 5 10 10 0 6 -4 10 -10 10 -5
0 -10 -4 -10 -10z"/>
<path d="M4715 9710 c-3 -6 0 -16 8 -24 11 -12 15 -11 25 4 6 10 8 21 5 24
-10 9 -31 7 -38 -4z"/>
<path d="M4598 9689 c-10 -5 -18 -16 -18 -24 0 -8 -18 -29 -40 -46 -27 -22
-40 -40 -40 -56 0 -14 4 -21 10 -18 6 3 11 -1 11 -9 4 -42 15 -56 45 -56 31 0
44 -28 21 -45 -21 -15 -23 -75 -3 -75 12 0 18 -18 33 -94 5 -26 7 -28 43 -31
26 -2 36 -10 55 -44 21 -36 22 -43 9 -54 -34 -28 -45 -40 -41 -43 4 -4 164 19
222 31 17 4 55 19 85 35 30 15 70 31 88 35 18 4 40 18 49 31 15 23 15 28 0 59
-9 19 -28 41 -42 51 -13 9 -23 20 -20 24 2 4 -26 36 -63 71 -37 35 -75 76 -84
91 -9 15 -31 34 -48 43 -16 8 -30 22 -30 30 0 16 -34 38 -44 28 -4 -4 -9 3
-13 16 -5 21 -10 22 -50 16 -57 -8 -86 1 -80 26 4 14 0 19 -16 19 -12 0 -30
-5 -39 -11z m51 -95 c2 -2 0 -19 -3 -39 -7 -35 -8 -36 -49 -33 -46 3 -64 31
-28 43 11 3 23 15 26 26 5 15 12 18 28 13 12 -3 24 -8 26 -10z m114 -24 c13
-33 34 -40 39 -12 3 15 7 14 28 -9 14 -14 33 -28 43 -32 23 -9 22 -23 -4 -30
-15 -4 -23 0 -26 13 -8 29 -33 33 -53 8 -18 -22 -18 -23 -39 -4 -12 11 -21 27
-21 37 0 11 -10 21 -25 25 -43 11 -27 26 33 33 8 0 19 -12 25 -29z m-88 -60
c3 -5 -3 -10 -15 -10 -12 0 -18 5 -15 10 3 6 10 10 15 10 5 0 12 -4 15 -10z
m35 -40 c0 -5 -4 -10 -10 -10 -5 0 -10 5 -10 10 0 6 5 10 10 10 6 0 10 -4 10
-10z m120 -40 c0 -5 -5 -10 -11 -10 -5 0 -7 5 -4 10 3 6 8 10 11 10 2 0 4 -4
4 -10z m217 -76 c-3 -3 -12 -4 -19 -1 -8 3 -5 6 6 6 11 1 17 -2 13 -5z m-127
-178 c0 -17 -24 -38 -33 -29 -15 15 -6 43 13 43 11 0 20 -6 20 -14z m-95 -46
c-3 -5 -12 -10 -18 -10 -7 0 -6 4 3 10 19 12 23 12 15 0z"/>
<path d="M4445 9510 c-9 -14 41 -59 65 -59 10 0 7 6 -9 20 -14 11 -30 27 -36
36 -9 12 -14 13 -20 3z"/>
</g>
</svg>
